<?xml version="1.0" encoding="UTF-8" standalone="no"?>
<!-- Created with Inkscape (http://www.inkscape.org/) -->

<svg
   xmlns:dc="http://purl.org/dc/elements/1.1/"
   xmlns:cc="http://creativecommons.org/ns#"
   xmlns:rdf="http://www.w3.org/1999/02/22-rdf-syntax-ns#"
   xmlns:svg="http://www.w3.org/2000/svg"
   xmlns="http://www.w3.org/2000/svg"
   xmlns:xlink="http://www.w3.org/1999/xlink"
   xmlns:sodipodi="http://sodipodi.sourceforge.net/DTD/sodipodi-0.dtd"
   xmlns:inkscape="http://www.inkscape.org/namespaces/inkscape"
   width="64px"
   height="64px"
   id="svg5094"
   version="1.1"
   inkscape:version="0.48.4 r9939"
   sodipodi:docname="stuff.svg">
  <defs
     id="defs5096">
    <linearGradient
       id="linearGradient5157">
      <stop
         style="stop-color:#fdb36b;stop-opacity:1;"
         offset="0"
         id="stop5159" />
      <stop
         id="stop5165"
         offset="0.5"
         style="stop-color:#fc9838;stop-opacity:1;" />
      <stop
         style="stop-color:#fb810c;stop-opacity:1;"
         offset="1"
         id="stop5161" />
    </linearGradient>
    <linearGradient
       id="linearGradient5145">
      <stop
         style="stop-color:#fcd8a8;stop-opacity:1;"
         offset="0"
         id="stop5147" />
      <stop
         style="stop-color:#f07a00;stop-opacity:1;"
         offset="1"
         id="stop5149" />
    </linearGradient>
    <filter
       id="filter5370"
       inkscape:label="Noise transparency"
       inkscape:menu="ABCs"
       inkscape:menu-tooltip="Basic noise transparency texture"
       color-interpolation-filters="sRGB"
       x="0"
       y="0"
       height="1"
       width="1">
      <feTurbulence
         id="feTurbulence5372"
         type="fractalNoise"
         numOctaves="4"
         baseFrequency=".1"
         result="result1"
         stitchTiles="stitch"
         seed="1" />
      <feComposite
         id="feComposite5374"
         in2="result1"
         operator="in"
         result="result2"
         in="SourceGraphic" />
      <feColorMatrix
         id="feColorMatrix5376"
         result="result3"
         values="1 0 0 0 0 0 1 0 0 0 0 0 1 0 0 0 0 0 3 -1"
         in="result2" />
    </filter>
    <clipPath
       clipPathUnits="userSpaceOnUse"
       id="clipTile">
      <rect
         style="color:#000000;fill-opacity:1;fill-rule:nonzero;marker:none;visibility:visible;display:inline;overflow:visible;enable-background:accumulate"
         id="clipRect"
         width="64"
         height="64"
         x="0"
         y="0" />
    </clipPath>
    <linearGradient
       inkscape:collect="always"
       xlink:href="#linearGradient5157"
       id="fillGrad_Bean"
       gradientUnits="userSpaceOnUse"
       gradientTransform="translate(15,12)"
       x1="8"
       y1="16"
       x2="12"
       y2="20" />
    <linearGradient
       inkscape:collect="always"
       xlink:href="#linearGradient5145"
       id="strokeGrad_Bean"
       gradientUnits="userSpaceOnUse"
       gradientTransform="translate(15,12)"
       x1="12"
       y1="12"
       x2="16"
       y2="16" />
    <linearGradient
       inkscape:collect="always"
       xlink:href="#linearGradient5157"
       id="fillGrad_Wave"
       gradientUnits="userSpaceOnUse"
       gradientTransform="translate(65.999997,-63.999993)"
       x1="8"
       y1="16"
       x2="12"
       y2="20" />
    <linearGradient
       inkscape:collect="always"
       xlink:href="#linearGradient5145"
       id="strokeGrad_Wave"
       gradientUnits="userSpaceOnUse"
       gradientTransform="translate(65.999997,-63.999993)"
       x1="12"
       y1="12"
       x2="16"
       y2="16" />
    <linearGradient
       inkscape:collect="always"
       xlink:href="#linearGradient5157"
       id="fillGrad_Star"
       gradientUnits="userSpaceOnUse"
       gradientTransform="translate(63.999997,-63.999993)"
       x1="-56.999996"
       y1="110.99999"
       x2="-43.999996"
       y2="119.99999" />
    <linearGradient
       inkscape:collect="always"
       xlink:href="#linearGradient5145"
       id="strokeGrad_Star"
       gradientUnits="userSpaceOnUse"
       gradientTransform="translate(63.999997,-63.999993)"
       x1="-53.999996"
       y1="107.99999"
       x2="-39.999996"
       y2="115.99999" />
  </defs>
  <sodipodi:namedview
     id="base"
     pagecolor="#ffffff"
     bordercolor="#666666"
     borderopacity="1.0"
     inkscape:pageopacity="0.0"
     inkscape:pageshadow="2"
     inkscape:zoom="8"
     inkscape:cx="68.604892"
     inkscape:cy="7.4468075"
     inkscape:current-layer="layer1"
     showgrid="false"
     inkscape:document-units="px"
     inkscape:grid-bbox="true"
     inkscape:object-nodes="true">
    <inkscape:grid
       type="xygrid"
       id="grid5113" />
  </sodipodi:namedview>
  <metadata
     id="metadata5099">
    <rdf:RDF>
      <cc:Work
         rdf:about="">
        <dc:format>image/svg+xml</dc:format>
        <dc:type
           rdf:resource="http://purl.org/dc/dcmitype/StillImage" />
        <dc:title />
      </cc:Work>
    </rdf:RDF>
  </metadata>
  <g
     id="layer1"
     inkscape:label="Layer 1"
     inkscape:groupmode="layer">
    <g
       id="g6204">
      <rect
         y="0"
         x="0"
         height="64"
         width="64"
         id="rect5366"
         style="color:#000000;fill:#a30b00;fill-opacity:1;fill-rule:nonzero;stroke:none;stroke-width:1px;stroke-linecap:butt;stroke-linejoin:miter;stroke-miterlimit:4;stroke-opacity:1;stroke-dasharray:none;stroke-dashoffset:0;marker:none;visibility:visible;display:inline;overflow:visible;enable-background:accumulate" />
      <rect
         style="color:#000000;fill:#6e0600;fill-opacity:1;fill-rule:nonzero;stroke:none;stroke-width:1px;marker:none;visibility:visible;display:inline;overflow:visible;filter:url(#filter5370);enable-background:accumulate"
         id="rect5368"
         width="64"
         height="64"
         x="0"
         y="0" />
      <g
         clip-path="url(#clipTile)"
         id="g6191">
        <path
           style="color:#000000;fill:url(#fillGrad_Bean);fill-opacity:1;fill-rule:nonzero;stroke:url(#strokeGrad_Bean);stroke-width:1px;stroke-linecap:butt;stroke-linejoin:miter;stroke-miterlimit:4;stroke-opacity:1;stroke-dasharray:none;stroke-dashoffset:0;marker:none;visibility:visible;display:inline;overflow:visible;enable-background:accumulate"
           d="m 21,38 c 3.224903,1.612452 3,-3 6,-8 3,-5 7,-5 7,-8 0,-3 -6.203277,-2.695085 -10,3 -3.796723,5.695085 -5,12 -3,13 z"
           id="path_bean"
           inkscape:connector-curvature="0"
           sodipodi:nodetypes="szszs" />
        <use
           x="0"
           y="0"
           xlink:href="#path_bean"
           id="clone_bean_1"
           transform="translate(-32,32)"
           width="64"
           height="64" />
        <use
           x="0"
           y="0"
           xlink:href="#path_bean"
           id="clone_bean_2"
           transform="translate(32,-32)"
           width="64"
           height="64" />
        <path
           id="path_wave"
           style="fill:url(#fillGrad_Wave);fill-opacity:1;stroke:url(#strokeGrad_Wave);stroke-width:1px;stroke-linecap:butt;stroke-linejoin:miter;stroke-opacity:1"
           d="M 18,24 C 15,24 14,20 11,20 8.0000002,20 4.0000002,24 1.8499457e-7,30 -3.9999998,36 -10,56 -14,56 c -2.687419,0 -4,-4 -7,-4 -4.484541,0 -7,4 -11,10 -4,6 -5,5 -1,-3 4,-8 7,-19 13,-19 2.134375,0 4,4 5,4 2,0 10.0000002,-9 14.00000019,-17 C 3.0000002,19 6.0000002,7.9999999 12,7.9999999 14.134375,7.9999999 16,12 17,12 19,12 27,2.9999999 31,-5.0000001 35,-13 37.999997,-24 43.999997,-24 c 2.134375,0 4,4 5,4 2,0 10,-8.999998 14,-16.999993 4,-8 7,-19 13,-19 2.134375,0 4,4 5,4 2,0 10,-9 14.000003,-17 4,-8 5,-3 1,3 -4,6 -10.000003,26 -14.000003,26 -3,0 -4,-4 -7,-4 -3,0 -7,4 -11,10 -4,5.999995 -10,25.9999929 -14,25.9999929 -2.687419,0 -4,-3.9999999 -7,-3.9999999 C 38.515456,-12 36,-8.0000001 32,-2.0000001 28,3.9999999 22,24 18,24 z"
           inkscape:connector-curvature="0"
           sodipodi:nodetypes="sssssssssssszsssssssssssszs" />
        <use
           x="0"
           y="0"
           xlink:href="#path_wave"
           id="use5266"
           transform="translate(0,64)"
           width="64"
           height="64" />
        <path
           sodipodi:type="star"
           style="color:#000000;fill:url(#fillGrad_Star);fill-opacity:1;fill-rule:nonzero;stroke:url(#strokeGrad_Star);stroke-width:1px;stroke-linecap:butt;stroke-linejoin:miter;stroke-miterlimit:4;stroke-opacity:1;stroke-dasharray:none;stroke-dashoffset:0;marker:none;visibility:visible;display:inline;overflow:visible;enable-background:accumulate"
           id="path_star"
           sodipodi:sides="5"
           sodipodi:cx="14"
           sodipodi:cy="48"
           sodipodi:r1="14.56022"
           sodipodi:r2="8.5440035"
           sodipodi:arg1="-1.849096"
           sodipodi:arg2="-1.2120257"
           inkscape:flatsided="false"
           inkscape:rounded="0.05"
           inkscape:randomized="0"
           d="M 9.9999998,34 C 10.444332,33.877244 16.566973,39.841924 17,40 c 0.426456,0.155678 8.828524,-0.509279 9.078723,-0.130464 0.254054,0.384651 -3.526694,8.050816 -3.54322,8.511497 -0.01628,0.453691 3.212518,8.23905 2.929559,8.594064 -0.287319,0.360483 -8.74659,-0.866246 -9.189831,-0.739606 C 15.838716,56.36021 9.432152,61.836784 9.0070746,61.677379 8.5754484,61.515519 7.1280786,53.091193 6.8706674,52.70878 6.6171618,52.33217 -0.57110586,47.93152 -0.5508592,47.477988 -0.53030061,47.01747 7.0344471,43.03768 7.3185988,42.674695 7.5984392,42.317218 9.5624093,34.120893 9.9999998,34 z"
           inkscape:transform-center-x="0.49022465"
           inkscape:transform-center-y="0.97490745"
           transform="translate(2.0000002,-7.0118574e-8)" />
        <use
           x="0"
           y="0"
           xlink:href="#path_star"
           inkscape:transform-center-x="0.49022465"
           inkscape:transform-center-y="0.97490745"
           id="use5364"
           transform="translate(32,-32)"
           width="64"
           height="64" />
        <use
           x="0"
           y="0"
           xlink:href="#path_bean"
           id="clone_bean_3"
           transform="translate(32,32)"
           width="64"
           height="64" />
      </g>
    </g>
  </g>
</svg>
