<?xml version="1.0" encoding="UTF-8" standalone="no"?>
<svg
   xmlns:dc="http://purl.org/dc/elements/1.1/"
   xmlns:cc="http://creativecommons.org/ns#"
   xmlns:rdf="http://www.w3.org/1999/02/22-rdf-syntax-ns#"
   xmlns:svg="http://www.w3.org/2000/svg"
   xmlns="http://www.w3.org/2000/svg"
   xmlns:xlink="http://www.w3.org/1999/xlink"
   xmlns:sodipodi="http://sodipodi.sourceforge.net/DTD/sodipodi-0.dtd"
   xmlns:inkscape="http://www.inkscape.org/namespaces/inkscape"
   version="1.0"
   width="1024"
   height="1024"
   preserveAspectRatio="xMidYMid meet"
   id="svg6"
   sodipodi:docname="crystal.svg"
   inkscape:version="0.92.2 2405546, 2018-03-11"
   viewBox="-24 -32 1040 1350">
  <metadata
     id="metadata12">
    <rdf:RDF>
      <cc:Work
         rdf:about="">
        <dc:format>image/svg+xml</dc:format>
        <dc:type
           rdf:resource="http://purl.org/dc/dcmitype/StillImage" />
      </cc:Work>
    </rdf:RDF>
  </metadata>
  <defs
     id="defs10" />
  <sodipodi:namedview
     pagecolor="#ffffff"
     bordercolor="#666666"
     borderopacity="1"
     objecttolerance="10"
     gridtolerance="10"
     guidetolerance="10"
     inkscape:pageopacity="0"
     inkscape:pageshadow="2"
     inkscape:window-width="2560"
     inkscape:window-height="1387"
     id="namedview8"
     showgrid="false"
     inkscape:snap-smooth-nodes="true"
     inkscape:object-paths="true"
     inkscape:snap-global="false"
     inkscape:zoom="0.35355339"
     inkscape:cx="813.66354"
     inkscape:cy="664.01289"
     inkscape:window-x="7680"
     inkscape:window-y="0"
     inkscape:window-maximized="1"
     inkscape:current-layer="svg6" />
  <g
     transform="matrix(0.1,0,0,-0.1,0,1280)"
     id="g4"
     style="fill:#00bcd4;fill-opacity:0.11618257;stroke:#00bcd4;stroke-width:375;stroke-miterlimit:4;stroke-dasharray:none;stroke-opacity:1">
    <path
       d="M 3971,12605 2568,10837 c 0,0 321,-3022 392,-3692 67,-630 66,-670 66,-670 l -119,631 -235,139 -76,530 c 0,0 -764,587 -970,714 -169,104 -256.1325,151.7735 -270,149 -21.1678,-4.2336 -653.06081,-414.9322 -691,-449 C 653.93892,8179.0676 20.247429,7202.8557 12,7189 -4.7545125,7160.8524 1259,4031 1259,4031 1259,4031 996.06409,3872.932 750,3641 404.06407,3314.932 302.28196,3192.8616 205,2995 125.28174,2832.8612 112.97685,2780.0024 78,2448 49.976846,2182.0024 113.20404,1901.138 241,1712 l 50,-74 -16,-62 c -23.21177,-89.9456 -29.50045,-221.9191 -15,-313 81.49981,-511.92068 684,-870 1731,-1027 406,-61 741.9863,-84.76761 1394,-96 566.9873,-9.76762 629.942,-14.39097 1040,-75 455.9424,-67.3910209 607.8713,-77.395521 738,-50 97.8745,20.605168 157.2541,56.730895 278,171 140.2547,132.73142 153.9134,134.76494 349,63 557.9136,-205.235134 1210.9396,-276.647259 1730,-188 411.9399,70.35279 870.922,271.08636 1109,486 316.922,286.08638 442.5954,831.1492 311,1355 -76.4049,304.1501 -186.9054,548.0675 -359,789 -52.9054,74.0676 -74.9585,117.0143 -105,204 -36.9586,107.0143 -149.5256,344.1434 -222,475 l -36,65 1742,2986 -474,1897 c 0,0 -161,33 -164,36 -6,6 -132,603 -132,627 0,43 -871,243 -890,246 -35,5 -1797,-1644 -1797,-1644 0,0 19,164 47,358 28,195 109,757 180,1249 71,492 140,971 154,1065 l 24,169 c -169.8357,183.255 -350.5177,356.573 -518,542 7.2335,85.235 30,170.329 30,256 0,90.114 -1396.8986,1578.728 -1428,1577 -39.5416,-2.197 -1021,-194 -1021,-194 z"
       id="path2"
       style="fill:#00bcd4;fill-opacity:0.11618257;stroke:#00bcd4;stroke-width:375;stroke-linejoin:round;stroke-miterlimit:4;stroke-dasharray:none;stroke-opacity:1"
       inkscape:connector-curvature="0"
       sodipodi:nodetypes="ccccccccssscsssscsscssssssssssscccsscccscccssc" />
  </g>
  <g
     id="g937"
     style="stroke:#00bcd4;stroke-width:18;stroke-linecap:round;stroke-linejoin:round;stroke-miterlimit:4;stroke-dasharray:none;stroke-opacity:1">
    <path
       d="m 302.6,632.5 42.56399,279.32511 -46.8589,35.29358 M 131.52542,574.91526 298.30509,947.11869 125.9,876.90001 M 135.6,416.2 131.52542,574.91526 259.6,502.5 M 1.2,561.1 131.52542,574.91526 66.5,461.1"
       style="fill:none;stroke:#00bcd4;stroke-width:18;stroke-linecap:round;stroke-linejoin:round;stroke-miterlimit:4;stroke-dasharray:none;stroke-opacity:1"
       id="path829"
       inkscape:connector-curvature="0" />
    <path
       d="M 469.80655,267.51897 V 932.91841 L 345.16399,911.82511 M 499.2,0.1 469.80655,267.51897 642,157.8 M 256.8,196.3 469.80655,267.51897 397.1,19.5"
       style="fill:none;stroke:#00bcd4;stroke-width:18;stroke-linecap:round;stroke-linejoin:round;stroke-miterlimit:4;stroke-dasharray:none;stroke-opacity:1"
       id="path839"
       inkscape:connector-curvature="0" />
    <path
       d="M 639,183.4 557.20015,298.7635 469.80655,932.91841 574.91526,894.91524 650.3,521.7 806.762,535.56453 M 690.8,237.6 557.20015,298.7635"
       style="fill:none;stroke:#00bcd4;stroke-width:18;stroke-linecap:round;stroke-linejoin:round;stroke-miterlimit:4;stroke-dasharray:none;stroke-opacity:1"
       id="path916"
       inkscape:connector-curvature="0"
       sodipodi:nodetypes="cccccccc" />
    <path
       d="M 661.69493,977.62711 574.91526,894.91524 736.27117,578.98306 h 135.59327 m -3e-5,0 -210.16948,398.64405 160.10506,-41.12707 M 996.00001,637.9 871.86441,578.98306 948.60001,448.2 736.27117,578.98306"
       style="fill:none;stroke:#00bcd4;stroke-width:18;stroke-linecap:round;stroke-linejoin:round;stroke-miterlimit:4;stroke-dasharray:none;stroke-opacity:1"
       id="path919"
       inkscape:connector-curvature="0" />
    <path
       d="m 918.99999,381.9 -49.4616,114.99766 M 830.00004,357.3 l 9.5855,158.04701"
       style="fill:none;stroke:#00bcd4;stroke-width:18;stroke-linecap:round;stroke-linejoin:round;stroke-miterlimit:4;stroke-dasharray:none;stroke-opacity:1"
       id="path924"
       inkscape:connector-curvature="0" />
  </g>
  <path
     style="opacity:1;vector-effect:none;fill:none;fill-opacity:1;stroke:#00bcd4;stroke-width:18;stroke-linecap:round;stroke-linejoin:round;stroke-miterlimit:4;stroke-dasharray:none;stroke-dashoffset:0;stroke-opacity:1"
     d="M 20.5,980.49999 298.30509,947.11869 29.1,1116.2 l 363.45672,151.3865 50.79924,-176.384 M 392.55672,1267.5865 298.30509,947.11869 443.35596,1091.2025 469.80655,932.91841 528.20877,1008.471 661.69493,977.62711 647.00271,1114.537 858.1,1010.9 752,1273.9 647.00271,1114.537 l -86.89117,135.9499 -31.90277,-242.0159 -84.85281,82.7315 117.11355,159.2443 z"
     id="path939"
     inkscape:connector-curvature="0"
     sodipodi:nodetypes="cccccccccccccccccccc" />
  <path
     sodipodi:type="star"
     style="opacity:1;vector-effect:none;fill:#fdffdd;fill-opacity:1;stroke:#f1f16e;stroke-width:18;stroke-linecap:round;stroke-linejoin:round;stroke-miterlimit:4;stroke-dasharray:none;stroke-dashoffset:0;stroke-opacity:1;marker:none;paint-order:normal"
     id="path955"
     sodipodi:sides="8"
     sodipodi:cx="226.58105"
     sodipodi:cy="245.83299"
     sodipodi:r1="204.11259"
     sodipodi:r2="42.638954"
     sodipodi:arg1="-0.67707495"
     sodipodi:arg2="-0.28437585"
     inkscape:flatsided="false"
     inkscape:rounded="0"
     inkscape:randomized="0"
     d="M 385.66817,117.95321 267.5075,233.87027 429.4973,267.89991 263.97934,266.31344 354.46084,404.92011 238.54377,286.75944 204.51414,448.74924 206.10061,283.23128 67.493935,373.71278 185.65461,257.79571 23.66481,223.76607 189.18277,225.35255 98.701269,86.745873 214.61834,204.90655 248.64797,42.916748 247.0615,208.43471 Z" />
  <use
     x="0"
     y="0"
     xlink:href="#path955"
     id="use957"
     transform="matrix(0.31847847,0.11509755,-0.11509755,0.31847847,19.372974,629.36523)"
     width="100%"
     height="100%" />
  <use
     height="100%"
     width="100%"
     transform="matrix(0.12983325,0.18369547,-0.18369547,0.12983325,927.50818,617.77105)"
     id="use959"
     xlink:href="#path955"
     y="0"
     x="0" />
</svg>
