<?xml version="1.0" encoding="utf-8"?>
<svg version="1.1" xmlns="http://www.w3.org/2000/svg" xmlns:xlink="http://www.w3.org/1999/xlink" x="0px" y="0px"
	 viewBox="0 0 922 625" width="1024" height="1024" style="enable-background:new 0 0 922.3 624.9;" xml:space="preserve">
<path d="M922.3,556.2c0,26.6-10.8,46.3-32.3,59c-11.4,5.1-23.1,8.2-35.2,9.5c-12,1.3-23.5-1.3-34.2-7.6
	c-10.8-6.3-21.2-13.9-31.4-22.8l-38-34.2c-17.7-15.2-38-32.3-60.9-51.3c-29.2-22.8-53.2-36.8-72.3-41.8c-25.4-8.9-51-14.3-77-16.2
	c-26-1.9-52.3-2.9-78.9-2.9s-53.2,1-79.9,2.9s-52.6,7.3-78,16.2c-19,5.1-43.1,19-72.3,41.8c-22.8,19-43.1,36.1-60.9,51.3l-38,34.2
	c-8.9,8.9-19,16.5-30.4,22.8c-11.4,6.3-23.1,8.9-35.2,7.6s-23.1-4.4-33.3-9.5C11.4,602.4,0,582.8,0,556.2s0.6-53.2,1.9-79.9
	c3.8-54.5,10.8-108.4,20.9-161.6c7.6-44.4,17.7-88.4,30.4-132.2S83,103.6,104.6,76.9l1.9-30.4c0-2.5,0.6-4.4,1.9-5.7
	c22.8-20.3,48.5-33,77-38s56.7-3.2,84.6,5.7c5.1,0,7.6,5.1,7.6,15.2v11.4c27.9,8.9,56.1,15.2,84.6,19c28.5,3.8,61.8,5.7,99.8,5.7
	s71.3-1.9,99.8-5.7c28.5-3.8,56.1-10.1,82.7-19V23.7c0-10.1,2.5-15.2,7.6-15.2c27.9-8.9,56.4-10.8,85.6-5.7s54.5,17.7,76.1,38
	c2.5,1.3,3.8,3.2,3.8,5.7v30.4h1.9c20.3,26.6,37.1,61.8,50.4,105.5s23.1,87.8,29.5,132.2c10.1,53.2,17.1,107.1,20.9,161.6
	C921.7,502.9,922.3,529.5,922.3,556.2z M136.9,231.9c15.2,14.6,33.6,21.9,55.1,21.9s39.6-7.3,54.2-21.9c14.6-14.6,21.9-33,21.9-55.1
	s-7.3-40.6-21.9-55.1c-14.6-14.6-32.6-21.9-54.2-21.9s-39.9,7.3-55.1,21.9s-22.8,32.6-22.8,54.2
	C114.1,198.6,121.7,217.3,136.9,231.9z M226.3,141.6c8.9,8.9,13.3,20.3,13.3,34.2c0,13.9-4.4,25.7-13.3,35.2
	c-8.9,9.5-20.3,14.3-34.2,14.3c-13.9,0-25.4-4.8-34.2-14.3c-8.9-9.5-13.3-21.2-13.3-35.2c0-13.9,4.4-25.4,13.3-34.2
	c8.9-8.9,20.3-13.3,34.2-13.3C206,128.3,217.4,132.7,226.3,141.6z M363.2,303.2c0-3.8-1.9-5.7-5.7-5.7h-36.1c-1.3,0-1.9-1.3-1.9-3.8
	v-34.2c-1.3-3.8-3.2-5.7-5.7-5.7h-38c-3.8,0-5.7,1.9-5.7,5.7v34.2c0,2.5-1.3,3.8-3.8,3.8H232c-3.8,0-5.7,1.9-5.7,5.7v38
	c0,2.5,1.9,4.4,5.7,5.7h34.2c2.5,0,3.8,0.6,3.8,1.9V385c0,3.8,1.9,5.7,5.7,5.7h38c2.5,0,4.4-1.9,5.7-5.7v-36.1
	c0-1.3,0.6-1.9,1.9-1.9h36.1c3.8-1.3,5.7-3.2,5.7-5.7V303.2z M405.1,214.8c0-12-6-18.1-18.1-18.1c-12,0-18.1,6-18.1,18.1
	s5.7,18.7,17.1,20C398.7,233.5,405.1,226.8,405.1,214.8z M479.2,215.8c0-12.7-6-19-18.1-19c-12,0-18.1,6.3-18.1,19
	c0,12.7,6.3,19.7,19,20.9C473.5,235.4,479.2,228.4,479.2,215.8z M479.2,322.2c0-12.7-6-19-18.1-19c-12,0-18.1,6.3-18.1,19
	s6.3,19,19,19C473.5,341.3,479.2,334.9,479.2,322.2z M535.3,232.9c12,0,18.1-6,18.1-18.1s-6-18.1-18.1-18.1s-18.7,6.3-20,19
	C516.6,227.2,523.3,232.9,535.3,232.9z M584.8,342.2c5.7-5.7,8.6-12.7,8.6-20.9s-2.9-14.9-8.6-20c-5.7-5.1-12.4-7.6-20-7.6
	c-7.6,0-14.3,2.5-20,7.6c-5.7,5.1-8.6,11.7-8.6,20s2.9,15.2,8.6,20.9c5.7,5.7,12.4,8.6,20,8.6C572.4,350.8,579.1,347.9,584.8,342.2z
	 M648.5,284.2c5.1-5.1,7.6-11.7,7.6-20s-2.5-14.9-7.6-20c-5.1-5.1-11.7-7.6-20-7.6s-15.2,2.5-20.9,7.6c-5.7,5.1-8.6,11.7-8.6,20
	s2.9,14.9,8.6,20c5.7,5.1,12.4,8.2,20,9.5C636.4,292.5,643.4,289.3,648.5,284.2z M648.5,399.3c5.1-5.7,7.6-12.4,7.6-20
	s-2.5-14.3-7.6-20s-11.7-8.6-20-8.6s-15.2,2.9-20.9,8.6c-5.7,5.7-8.6,12.4-8.6,20s2.9,14.3,8.6,20c5.7,5.7,12.4,8.6,20,8.6
	C636.4,407.8,643.4,405,648.5,399.3z M786.3,231.9c14.6-14.6,21.9-33,21.9-55.1s-7.3-40.6-21.9-55.1s-33-21.9-55.1-21.9
	s-40.6,7.3-55.1,21.9c-14.6,14.6-21.9,33-21.9,55.1s7.3,40.6,21.9,55.1c14.6,14.6,32.6,21.9,54.2,21.9
	C753.1,253.8,771.8,246.5,786.3,231.9z M711.2,342.2c5.1-5.7,7.6-12.7,7.6-20.9s-2.5-14.9-7.6-20s-11.7-7.6-20-7.6
	s-15.2,2.5-20.9,7.6c-5.7,5.1-8.6,11.7-8.6,20s2.9,15.2,8.6,20.9c5.7,5.7,12.4,8.6,20,8.6C699.2,350.8,706.2,347.9,711.2,342.2z
	 M764.5,141.6c8.9,8.9,13.3,20.3,13.3,34.2c0,13.9-4.4,25.7-13.3,35.2s-20.3,14.3-34.2,14.3c-13.9,0-25.4-4.8-34.2-14.3
	c-8.9-9.5-13.3-21.2-13.3-35.2c0-13.9,4.4-25.4,13.3-34.2c8.9-8.9,20.3-13.3,34.2-13.3C744.2,128.3,755.6,132.7,764.5,141.6z"
	style="fill:#111" />
</svg>
