<?xml version="1.0" encoding="UTF-8" standalone="no"?>
<!-- Created with Inkscape (http://www.inkscape.org/) -->

<svg
   xmlns:dc="http://purl.org/dc/elements/1.1/"
   xmlns:cc="http://creativecommons.org/ns#"
   xmlns:rdf="http://www.w3.org/1999/02/22-rdf-syntax-ns#"
   xmlns:svg="http://www.w3.org/2000/svg"
   xmlns="http://www.w3.org/2000/svg"
   xmlns:sodipodi="http://sodipodi.sourceforge.net/DTD/sodipodi-0.dtd"
   xmlns:inkscape="http://www.inkscape.org/namespaces/inkscape"
   width="512mm"
   height="512mm"
   viewBox="0 0 512 512"
   version="1.1"
   id="svg8"
   sodipodi:docname="kindergarten.svg"
   inkscape:version="0.92.2 2405546, 2018-03-11">
  <defs
     id="defs2" />
  <sodipodi:namedview
     id="base"
     pagecolor="#ffffff"
     bordercolor="#666666"
     borderopacity="1.0"
     inkscape:pageopacity="0.0"
     inkscape:pageshadow="2"
     inkscape:zoom="0.35355339"
     inkscape:cx="210.37059"
     inkscape:cy="1019.8678"
     inkscape:document-units="mm"
     inkscape:current-layer="layer1"
     showgrid="false"
     fit-margin-top="0"
     fit-margin-left="0"
     fit-margin-right="0"
     fit-margin-bottom="0"
     inkscape:window-width="2560"
     inkscape:window-height="1387"
     inkscape:window-x="7680"
     inkscape:window-y="0"
     inkscape:window-maximized="1" />
  <metadata
     id="metadata5">
    <rdf:RDF>
      <cc:Work
         rdf:about="">
        <dc:format>image/svg+xml</dc:format>
        <dc:type
           rdf:resource="http://purl.org/dc/dcmitype/StillImage" />
        <dc:title />
      </cc:Work>
    </rdf:RDF>
  </metadata>
  <g
     inkscape:label="Layer 1"
     inkscape:groupmode="layer"
     id="layer1">
    <g
       id="g906"
       transform="translate(240,240)">
      <rect
         ry="40"
         y="16"
         x="16"
         height="240"
         width="240"
         id="rect900"
         style="opacity:1;vector-effect:none;fill:#c9eac8;fill-opacity:1;stroke:#61c57c;stroke-width:28.57500076;stroke-linecap:butt;stroke-linejoin:miter;stroke-miterlimit:4;stroke-dasharray:none;stroke-dashoffset:0;stroke-opacity:1;marker:none;paint-order:normal" />
      <g
         aria-label="C"
         style="font-weight:bold;font-size:180px;font-family:'Averia Sans Libre';text-align:center;text-anchor:middle;stroke:#000000;stroke-width:6.3499999;stroke-miterlimit:4;stroke-dasharray:none"
         id="text904">
        <path
           d="m 116.79688,142.16797 q 0,9.14062 2.10937,17.22656 5.88867,22.5 29.26758,22.5 7.99804,0 17.84179,-3.86719 9.84375,-3.95507 13.44727,-3.95507 3.69141,0 5.71289,2.37304 2.02149,2.37305 2.02149,5.44922 0,6.94336 -14.1504,13.88672 -11.51367,5.625 -25.57617,5.625 h -2.72461 q -13.0957,0 -23.20312,-4.6582 Q 102.29492,187.87109 96.845703,167.74414 93.417969,155 93.417969,139.53125 q 0,-31.11328 13.447261,-47.460938 6.06446,-7.382812 17.31446,-12.304687 11.33789,-4.921875 22.06054,-4.921875 h 2.63672 q 14.50196,0 22.76367,4.042969 8.26172,4.042968 12.2168,9.316406 1.49414,2.021484 1.49414,6.328125 0,4.306641 -2.54883,6.85547 -2.54882,2.54883 -6.32812,2.54883 -3.69141,0 -14.67774,-4.218753 -10.98632,-4.306641 -18.01757,-4.306641 -7.03125,0 -12.65625,3.076172 -5.53711,3.076172 -8.4375,7.910152 -5.88867,9.66797 -5.88867,35.77149 z"
           style="stroke:#61c57c;stroke-opacity:1;fill:#61c57c;fill-opacity:1"
           id="path983" />
      </g>
    </g>
    <g
       id="g898"
       transform="translate(0,240)">
      <rect
         style="opacity:1;vector-effect:none;fill:#c9d8e9;fill-opacity:1;stroke:#6993d2;stroke-width:28.57500076;stroke-linecap:butt;stroke-linejoin:miter;stroke-miterlimit:4;stroke-dasharray:none;stroke-dashoffset:0;stroke-opacity:1;marker:none;paint-order:normal"
         id="rect892"
         width="240"
         height="240"
         x="16"
         y="16"
         ry="40" />
      <g
         aria-label="B"
         style="font-weight:bold;font-size:180px;font-family:'Averia Sans Libre';text-align:center;text-anchor:middle;stroke:#000000;stroke-width:6.3499999;stroke-miterlimit:4;stroke-dasharray:none"
         id="text896">
        <path
           d="m 124.44336,126.17188 h 11.42578 q 22.41211,0 22.41211,-15.73243 v -2.90039 q 0,-15.029294 -21.44531,-15.029294 h -6.76758 q -7.64648,0 -9.31641,0.791015 -1.66992,0.703125 -1.66992,5.097656 l -0.17578,1.845703 v 17.31445 l 0.35156,3.7793 q 0,4.83399 5.18555,4.83399 z m 3.33984,55.89843 h 12.30469 q 11.77734,0 17.40234,-4.6582 5.71289,-4.74609 5.71289,-12.91992 v -3.25196 q 0,-7.82226 -5.27343,-12.65625 -5.27344,-4.83398 -13.00782,-4.83398 -1.58203,-0.17578 -2.46093,-0.17578 l -3.95508,-0.17578 h -10.54688 q -8.61328,0 -8.61328,4.48242 -0.17578,1.40625 -0.17578,2.10937 l -0.17578,1.40625 -0.0879,2.19727 v 18.98437 l 0.35156,4.30665 q 0,3.25195 1.40625,4.21875 1.40625,0.96679 7.11914,0.96679 z m 58.27149,-17.22656 q 0,35.33203 -47.19727,35.33203 h -27.50976 q -13.183598,0 -14.414066,-4.83398 -0.615235,-2.37305 -0.615235,-37.26563 v -53.52539 l -0.08789,-6.240233 v -6.240235 l -0.175782,-6.064453 q 0,-8.876953 4.658203,-10.371093 3.25195,-1.054688 24.43359,-1.054688 h 12.74414 q 42.71485,0 42.71485,32.167972 0,13.62304 -10.01953,22.41211 -4.21875,3.6914 -4.21875,4.30664 0,0.52734 2.90039,2.19726 2.98828,1.58203 6.15234,4.04297 3.16406,2.46094 6.85547,8.61328 3.7793,6.15235 3.7793,16.52344 z"
           style="stroke:#6993d2;stroke-opacity:1;fill:#6993d2;fill-opacity:1"
           id="path986" />
      </g>
    </g>
    <g
       id="g890"
       transform="rotate(-45,236,12)">
      <rect
         ry="40"
         y="16"
         x="16"
         height="240"
         width="240"
         id="rect838"
         style="opacity:1;vector-effect:none;fill:#edb4b4;fill-opacity:1;stroke:#d25050;stroke-width:28.57500076;stroke-linecap:butt;stroke-linejoin:miter;stroke-miterlimit:4;stroke-dasharray:none;stroke-dashoffset:0;stroke-opacity:1;marker:none;paint-order:normal" />
      <g
         aria-label="A"
         style="font-weight:bold;font-size:180px;font-family:'Averia Sans Libre';text-align:center;text-anchor:middle;stroke:#000000;stroke-width:6.3499999;stroke-miterlimit:4;stroke-dasharray:none"
         id="text832">
        <path
           d="m 133.14453,149.55078 h 13.44727 q 8.34961,0 8.34961,-2.46094 v -0.52734 q 0,-9.93164 -11.51368,-39.90234 -2.19726,-5.71289 -2.98828,-5.71289 -0.35156,0 -2.98828,6.06445 -13.53515,31.55273 -13.53515,40.2539 0,2.28516 9.22851,2.28516 z m 59.0625,45.17578 q 0,4.65821 -8.61328,4.65821 -8.61328,0 -12.48047,-5.36133 -2.37305,-3.33985 -5.53711,-12.74414 -3.07617,-9.49219 -4.6582,-11.33789 -2.63672,-2.98829 -13.53516,-2.98829 -22.14843,0 -28.125,3.07618 -3.25195,1.66992 -6.94336,12.04101 -3.6914,10.3711 -5.44922,12.56836 -3.33984,4.13086 -11.337886,4.13086 -7.910157,0 -7.910157,-3.69141 0,-3.6914 15.996093,-51.67968 15.9961,-47.988284 16.69922,-49.482424 6.76758,-13.886719 9.49219,-16.259766 2.8125,-2.373047 10.54687,-2.373047 7.73438,0.08789 10.28321,2.021484 6.24023,4.833985 18.19335,39.990233 12.04102,35.15625 14.0625,43.59375 2.02149,8.34961 5.625,20.30274 3.69141,11.95312 3.69141,13.53515 z"
           style="stroke:#d25050;stroke-opacity:1;fill:#d25050;fill-opacity:1"
           id="path989" />
      </g>
    </g>
  </g>
</svg>
